<svg width="76" height="48" viewBox="0 0 76 48" fill="none" xmlns="http://www.w3.org/2000/svg">
<g clip-path="url(#clip0_12757_25067)">
<rect width="76" height="48" transform="translate(0 0.0078125)" fill="#E9E9EB"/>
<path d="M30.3403 30.7778V29.354H32.8979V27.1655H30.3403V25.7417H32.8979V15.3794H39.5425C43.3262 15.3794 45.8179 17.8184 45.8179 21.2725V21.2988C45.8179 24.7661 43.2998 27.1655 39.5161 27.1655H36.2202V29.354H41.4277V30.7778H36.2202V33.6123H32.8979V30.7778H30.3403ZM36.2202 24.5156H38.6196C41.1509 24.5156 42.4429 23.3423 42.4429 21.3252V21.2988C42.4429 19.2686 41.1641 18.1084 38.6196 18.1084H36.2202V24.5156Z" fill="#8A8A8E"/>
</g>
<defs>
<clipPath id="clip0_12757_25067">
<rect y="0.0078125" width="76" height="48" rx="4" fill="white"/>
</clipPath>
</defs>
</svg>
